<svg xmlns="http://www.w3.org/2000/svg" version="1.1" xmlns:xlink="http://www.w3.org/1999/xlink" xmlns:svgjs="http://svgjs.com/svgjs" width="1920" height="1080" preserveAspectRatio="none" viewBox="0 0 1920 1080"><g mask="url(&quot;#SvgjsMask1553&quot;)" fill="none"><rect width="1920" height="1080" x="0" y="0" fill="rgba(237, 242, 244, 1)"></rect><path d="M1984 1080L0 1080 L0 256.11Q83.41 179.52, 160 262.94Q194.88 201.82, 256 236.71Q384.81 205.52, 416 334.33Q511.19 269.51, 576 364.7Q633.27 325.97, 672 383.23Q729.3 344.53, 768 401.84Q894.92 368.76, 928 495.69Q966.94 438.63, 1024 477.57Q1098.93 392.5, 1184 467.43Q1218.01 405.44, 1280 439.45Q1323.99 323.44, 1440 367.43Q1494.11 325.54, 1536 379.65Q1649.78 397.43, 1632 511.21Q1629.58 412.79, 1728 410.37Q1722.53 308.9, 1824 303.44Q1898.47 217.91, 1984 292.39z" fill="rgba(211, 211, 211, 1)"></path><path d="M1984 1080L0 1080 L0 660.69Q7.41 572.11, 96 579.52Q94.51 482.03, 192 480.55Q216.1 408.65, 288 432.76Q353.1 401.86, 384 466.96Q524.73 511.69, 480 652.43Q444.52 520.95, 576 485.48Q633.32 382.8, 736 440.11Q796.63 404.75, 832 465.38Q898.9 436.28, 928 503.18Q1014.37 429.54, 1088 515.91Q1154.58 486.48, 1184 553.06Q1256.52 529.58, 1280 602.09Q1375.13 601.22, 1376 696.34Q1397.56 621.89, 1472 643.45Q1464.51 475.96, 1632 468.47Q1700.67 377.14, 1792 445.82Q1856.77 414.59, 1888 479.36Q1950.1 445.46, 1984 507.56z" fill="rgba(11, 9, 10, 1)"></path><path d="M2048 1080L0 1080 L0 694.94Q73.37 672.31, 96 745.67Q188.22 677.88, 256 770.1Q370.57 788.67, 352 903.24Q305.38 760.62, 448 713.99Q465.53 635.52, 544 653.06Q639.11 588.16, 704 683.27Q771.99 655.25, 800 723.24Q873.74 700.98, 896 774.72Q942.47 661.19, 1056 707.66Q1147.42 639.08, 1216 730.5Q1256.46 610.96, 1376 651.42Q1468.26 583.68, 1536 675.94Q1591.18 635.13, 1632 690.31Q1744.49 642.8, 1792 755.29Q1924.89 792.18, 1888 925.07Q1851.2 728.27, 2048 691.47z" fill="rgba(22, 26, 29, 1)"></path><path d="M2048 1080L0 1080 L0 966.38Q87.67 894.05, 160 981.72Q211.22 872.94, 320 924.16Q348.34 856.5, 416 884.83Q505.87 814.7, 576 904.57Q679.55 848.12, 736 951.67Q836.91 956.58, 832 1057.49Q816.76 882.25, 992 867.01Q1169.65 884.66, 1152 1062.32Q1139.5 889.81, 1312 877.31Q1354.34 823.65, 1408 865.99Q1538.26 836.25, 1568 966.5Q1634.33 872.83, 1728 939.16Q1795.39 846.56, 1888 913.95Q1973.16 839.12, 2048 924.28z" fill="rgba(186, 24, 27, 1)"></path></g><defs><mask id="SvgjsMask1553"><rect width="1920" height="1080" fill="#ffffff"></rect></mask></defs></svg>