<svg xmlns="http://www.w3.org/2000/svg" version="1.1" xmlns:xlink="http://www.w3.org/1999/xlink" xmlns:svgjs="http://svgjs.com/svgjs" width="1440" height="560" preserveAspectRatio="none" viewBox="0 0 1440 560"><g mask="url(&quot;#SvgjsMask1016&quot;)" fill="none"><rect width="1440" height="560" x="0" y="0" fill="rgba(22, 26, 29, 1)"></rect><path d="M -897.1115238648913,76 C -801.11,142.2 -609.11,410.4 -417.11152386489124,407 C -225.11,403.6 -129.11,78.6 62.88847613510876,59 C 254.89,39.4 350.89,272.4 542.8884761351087,309 C 734.89,345.6 843.47,213.4 1022.8884761351087,242 C 1202.31,270.6 1356.58,410 1440,452" stroke="rgba(229, 56, 59, 1)" stroke-width="2"></path><path d="M -748.5984474638065,148 C -652.6,205 -460.6,430.6 -268.5984474638065,433 C -76.6,435.4 19.4,188.4 211.4015525361935,160 C 403.4,131.6 499.4,310.2 691.4015525361935,291 C 883.4,271.8 1021.68,62 1171.4015525361935,64 C 1321.12,66 1386.28,253.6 1440,301" stroke="rgba(229, 56, 59, 1)" stroke-width="2"></path><path d="M -392.2596889134004,415 C -296.26,377.8 -104.26,215 87.74031108659958,229 C 279.74,243 375.74,516.6 567.7403110865996,485 C 759.74,453.4 855.74,70 1047.7403110865996,71 C 1239.74,72 1449.29,463.2 1527.7403110865996,490 C 1606.19,516.8 1457.55,262 1440,205" stroke="rgba(229, 56, 59, 1)" stroke-width="2"></path><path d="M -934.0624461353026,346 C -838.06,326 -646.06,245.8 -454.0624461353026,246 C -262.06,246.2 -166.06,345 25.937553864697406,347 C 217.94,349 313.94,267 505.9375538646974,256 C 697.94,245 799.13,323.2 985.9375538646974,292 C 1172.75,260.8 1349.19,138.4 1440,100" stroke="rgba(229, 56, 59, 1)" stroke-width="2"></path></g><defs><mask id="SvgjsMask1016"><rect width="1440" height="560" fill="#ffffff"></rect></mask></defs></svg>